<svg xmlns="http://www.w3.org/2000/svg" xmlns:xlink="http://www.w3.org/1999/xlink" width="350pt" height="260pt" viewBox="0.00 0.00 350.00 260.00">
<g id="graph0" class="graph" transform="scale(1 1) rotate(0) translate(4 256)">
<title>G</title>
<polygon fill="white" stroke="none" points="-4,4 -4,-256 346,-256 346,4 -4,4"/>
<!-- 1 -->
<g id="node1" class="node">
<title>1</title>
<ellipse fill="none" stroke="black" cx="135" cy="-234" rx="27" ry="18"/>
<text xml:space="preserve" text-anchor="middle" x="135" y="-229.8" font-family="Times,serif" font-size="14.00">1</text>
</g>
<!-- 2 -->
<g id="node2" class="node">
<title>2</title>
<ellipse fill="none" stroke="black" cx="27" cy="-162" rx="27" ry="18"/>
<text xml:space="preserve" text-anchor="middle" x="27" y="-157.8" font-family="Times,serif" font-size="14.00">2</text>
</g>
<!-- 1&#45;&#45;2 -->
<g id="edge1" class="edge">
<title>1--2</title>
<path fill="none" stroke="black" d="M116.19,-220.81C96.49,-208.04 65.72,-188.09 45.96,-175.29"/>
</g>
<!-- 3 -->
<g id="node3" class="node">
<title>3</title>
<ellipse fill="none" stroke="black" cx="99" cy="-162" rx="27" ry="18"/>
<text xml:space="preserve" text-anchor="middle" x="99" y="-157.8" font-family="Times,serif" font-size="14.00">3</text>
</g>
<!-- 1&#45;&#45;3 -->
<g id="edge2" class="edge">
<title>1--3</title>
<path fill="none" stroke="black" d="M126.65,-216.76C120.83,-205.46 113.11,-190.44 107.3,-179.15"/>
</g>
<!-- 4 -->
<g id="node4" class="node">
<title>4</title>
<ellipse fill="none" stroke="black" cx="171" cy="-162" rx="27" ry="18"/>
<text xml:space="preserve" text-anchor="middle" x="171" y="-157.8" font-family="Times,serif" font-size="14.00">4</text>
</g>
<!-- 1&#45;&#45;4 -->
<g id="edge3" class="edge">
<title>1--4</title>
<path fill="none" stroke="black" d="M143.35,-216.76C149.17,-205.46 156.89,-190.44 162.7,-179.15"/>
</g>
<!-- 6 -->
<g id="node5" class="node">
<title>6</title>
<ellipse fill="none" stroke="black" cx="315" cy="-162" rx="27" ry="18"/>
<text xml:space="preserve" text-anchor="middle" x="315" y="-157.8" font-family="Times,serif" font-size="14.00">6</text>
</g>
<!-- 1&#45;&#45;6 -->
<g id="edge4" class="edge">
<title>1--6</title>
<path fill="none" stroke="black" d="M158.95,-224.91C187.73,-215.03 237.36,-197.46 279,-180 283.84,-177.97 288.99,-175.65 293.82,-173.38"/>
</g>
<!-- 7 -->
<g id="node7" class="node">
<title>7</title>
<ellipse fill="none" stroke="black" cx="243" cy="-90" rx="27" ry="18"/>
<text xml:space="preserve" text-anchor="middle" x="243" y="-85.8" font-family="Times,serif" font-size="14.00">7</text>
</g>
<!-- 6&#45;&#45;7 -->
<g id="edge6" class="edge">
<title>6--7</title>
<path fill="none" stroke="black" d="M300.08,-146.5C287.72,-134.48 270.25,-117.49 257.9,-105.49"/>
</g>
<!-- 8 -->
<g id="node8" class="node">
<title>8</title>
<ellipse fill="none" stroke="black" cx="315" cy="-90" rx="27" ry="18"/>
<text xml:space="preserve" text-anchor="middle" x="315" y="-85.8" font-family="Times,serif" font-size="14.00">8</text>
</g>
<!-- 6&#45;&#45;8 -->
<g id="edge7" class="edge">
<title>6--8</title>
<path fill="none" stroke="black" d="M315,-143.7C315,-132.85 315,-118.92 315,-108.1"/>
</g>
<!-- 5 -->
<g id="node6" class="node">
<title>5</title>
<ellipse fill="none" stroke="black" cx="243" cy="-162" rx="27" ry="18"/>
<text xml:space="preserve" text-anchor="middle" x="243" y="-157.8" font-family="Times,serif" font-size="14.00">5</text>
</g>
<!-- 5&#45;&#45;7 -->
<g id="edge5" class="edge">
<title>5--7</title>
<path fill="none" stroke="black" d="M243,-143.7C243,-132.85 243,-118.92 243,-108.1"/>
</g>
<!-- 9 -->
<g id="node9" class="node">
<title>9</title>
<ellipse fill="none" stroke="black" cx="315" cy="-18" rx="27" ry="18"/>
<text xml:space="preserve" text-anchor="middle" x="315" y="-13.8" font-family="Times,serif" font-size="14.00">9</text>
</g>
<!-- 8&#45;&#45;9 -->
<g id="edge8" class="edge">
<title>8--9</title>
<path fill="none" stroke="black" d="M315,-71.7C315,-60.85 315,-46.92 315,-36.1"/>
</g>
</g>
</svg>